<svg version="1.1" xmlns="http://www.w3.org/2000/svg" xmlns:xlink="http://www.w3.org/1999/xlink" width="105.17693" height="44.3458" viewBox="0,0,105.17693,44.3458"><g transform="translate(-337.41153,-157.8271)"><g data-paper-data="{&quot;isPaintingLayer&quot;:true}" fill="none" fill-rule="nonzero" stroke="#6200c7" stroke-width="8.5" stroke-linecap="round" stroke-linejoin="miter" stroke-miterlimit="10" stroke-dasharray="" stroke-dashoffset="0" style="mix-blend-mode: normal"><g data-paper-data="{&quot;origPos&quot;:null}"><path d="M399.19544,197.92289c0,0 2.92056,-10.73597 10.57356,-17.85541c7.38468,-6.86983 27.95862,-17.99038 27.95862,-17.99038" data-paper-data="{&quot;origPos&quot;:null,&quot;origRot&quot;:0}"/><path d="M398.58462,162.29622c0,0 12.74999,3.58344 20.64562,10.61585c7.61881,6.78585 19.10823,24.79172 19.10823,24.79172" data-paper-data="{&quot;origPos&quot;:null,&quot;origRot&quot;:0}"/></g><g data-paper-data="{&quot;origPos&quot;:null}"><path d="M342.27237,197.9229c0,0 2.92057,-10.73596 10.57356,-17.85541c7.38468,-6.86983 27.95862,-17.99038 27.95862,-17.99038" data-paper-data="{&quot;origPos&quot;:null,&quot;origRot&quot;:0}"/><path d="M341.66153,162.29621c0,0 12.74999,3.58345 20.64563,10.61585c7.61881,6.78585 19.10823,24.79171 19.10823,24.79171" data-paper-data="{&quot;origPos&quot;:null,&quot;origRot&quot;:0}"/></g></g></g></svg>