<svg version="1.1" xmlns="http://www.w3.org/2000/svg" xmlns:xlink="http://www.w3.org/1999/xlink" width="161.71539" height="44.34579" viewBox="0,0,161.71539,44.34579"><g transform="translate(-308.95,-157.8271)"><g data-paper-data="{&quot;isPaintingLayer&quot;:true}" fill="none" fill-rule="nonzero" stroke="#6200c7" stroke-width="8.5" stroke-linecap="round" stroke-linejoin="miter" stroke-miterlimit="10" stroke-dasharray="" stroke-dashoffset="0" style="mix-blend-mode: normal"><g><path d="M370.73391,197.92289c0,0 2.92056,-10.73597 10.57356,-17.85541c7.38468,-6.86983 27.95862,-17.99038 27.95862,-17.99038" data-paper-data="{&quot;origPos&quot;:null,&quot;origRot&quot;:0}"/><path d="M370.12308,162.29622c0,0 12.74999,3.58344 20.64562,10.61585c7.61881,6.78585 19.10823,24.79172 19.10823,24.79172" data-paper-data="{&quot;origPos&quot;:null,&quot;origRot&quot;:0}"/></g><g><path d="M427.27237,197.9229c0,0 2.92057,-10.73596 10.57356,-17.85541c7.38468,-6.86983 27.95862,-17.99038 27.95862,-17.99038" data-paper-data="{&quot;origPos&quot;:null,&quot;origRot&quot;:0}"/><path d="M426.66154,162.29622c0,0 12.74999,3.58345 20.64563,10.61585c7.61881,6.78585 19.10823,24.79171 19.10823,24.79171" data-paper-data="{&quot;origPos&quot;:null,&quot;origRot&quot;:0}"/></g><g data-paper-data="{&quot;origPos&quot;:null}"><path d="M313.81083,197.9229c0,0 2.92057,-10.73596 10.57356,-17.85541c7.38468,-6.86983 27.95862,-17.99038 27.95862,-17.99038" data-paper-data="{&quot;origPos&quot;:null,&quot;origRot&quot;:0}"/><path d="M313.2,162.29621c0,0 12.74999,3.58345 20.64563,10.61585c7.61881,6.78585 19.10823,24.79171 19.10823,24.79171" data-paper-data="{&quot;origPos&quot;:null,&quot;origRot&quot;:0}"/></g></g></g></svg>