<svg version="1.1" xmlns="http://www.w3.org/2000/svg" xmlns:xlink="http://www.w3.org/1999/xlink" width="45.8" height="45.8" viewBox="0,0,45.8,45.8"><defs><linearGradient x1="320" y1="157.6" x2="320" y2="202.4" gradientUnits="userSpaceOnUse" id="color-1"><stop offset="0" stop-color="#49e54f"/><stop offset="1" stop-color="#319a35"/></linearGradient><linearGradient x1="320.03764" y1="158.61587" x2="320.03764" y2="171.28889" gradientUnits="userSpaceOnUse" id="color-2"><stop offset="0" stop-color="#93e595"/><stop offset="1" stop-color="#93e595" stop-opacity="0"/></linearGradient></defs><g transform="translate(-297.1,-157.1)"><g data-paper-data="{&quot;isPaintingLayer&quot;:true}" fill-rule="nonzero" stroke-linecap="butt" stroke-linejoin="miter" stroke-miterlimit="10" stroke-dasharray="" stroke-dashoffset="0" style="mix-blend-mode: normal"><path d="M297.6,180c0,-12.37118 10.02882,-22.4 22.4,-22.4c12.37118,0 22.4,10.02882 22.4,22.4c0,12.37118 -10.02882,22.4 -22.4,22.4c-12.37118,0 -22.4,-10.02882 -22.4,-22.4z" data-paper-data="{&quot;origPos&quot;:null}" fill="url(#color-1)" stroke="#007402" stroke-width="1"/><path d="M335.12335,164.69841c1.60596,1.43823 -1.79554,7.23346 -15.08571,7.2254c-13.29389,-0.00807 -16.10335,-5.70847 -15.08571,-6.97143c2.96215,-3.67622 8.01647,-6.33651 15.08572,-6.33651c7.06924,0 11.50309,2.87409 15.08572,6.08254z" data-paper-data="{&quot;origPos&quot;:null}" fill="url(#color-2)" stroke="none" stroke-width="0"/></g></g></svg>