<svg version="1.1" xmlns="http://www.w3.org/2000/svg" xmlns:xlink="http://www.w3.org/1999/xlink" width="83.38889" height="49.5" viewBox="0,0,83.38889,49.5"><g transform="translate(-348.30556,-155.25)"><g data-paper-data="{&quot;isPaintingLayer&quot;:true}" fill-rule="nonzero" stroke="#7f5bc6" stroke-linejoin="miter" stroke-miterlimit="10" stroke-dasharray="" stroke-dashoffset="0" style="mix-blend-mode: normal"><g><path d="M352.08333,200.97222c0,0 -2.77778,-12.36055 -2.77778,-19.73856c0,-9.09976 2.77778,-22.48366 2.77778,-22.48366c0,0 24.38949,-2.5 40,-2.5c13.87601,0 35.55556,2.5 35.55556,2.5c0,0 3.05556,12.75386 3.05556,21.09477c0,8.13685 -3.05556,21.12745 -3.05556,21.12745c0,0 -23.59007,2.77778 -38.33333,2.77778c-14.74326,0 -37.22222,-2.77778 -37.22222,-2.77778z" data-paper-data="{&quot;origPos&quot;:null}" fill="#bea1fa" stroke-width="2" stroke-linecap="butt"/><path d="M414.16667,179.80801h-45" data-paper-data="{&quot;origPos&quot;:null}" fill="none" stroke-width="4" stroke-linecap="round"/><path d="M375,190.34722l-10.55556,-10.55556l10.41667,-10.41667" data-paper-data="{&quot;origPos&quot;:null}" fill="none" stroke-width="4" stroke-linecap="round"/></g></g></g></svg>